<svg version="1.1" id="Layer_1" xmlns="http://www.w3.org/2000/svg" xmlns:xlink="http://www.w3.org/1999/xlink" x="0px" y="0px"
	 width="100%" viewBox="0 0 512 512" enable-background="new 0 0 512 512" xml:space="preserve">
<path fill="#000000" opacity="1.000000" stroke="none" 
	d="
M307.000000,513.000000 
	C204.691513,513.000000 102.883018,513.000000 1.037265,513.000000 
	C1.037265,342.399811 1.037265,171.799637 1.037265,1.099719 
	C171.558502,1.099719 342.117065,1.099719 512.837830,1.099719 
	C512.837830,171.666534 512.837830,342.333252 512.837830,513.000000 
	C444.466278,513.000000 375.983124,513.000000 307.000000,513.000000 
M335.310303,476.819122 
	C338.685791,473.602295 341.999817,470.317932 345.447754,467.180725 
	C358.205231,455.572784 373.873657,450.764160 390.416992,447.930664 
	C407.915985,444.933533 420.059845,435.658722 425.271515,418.130219 
	C427.053040,412.138397 429.448792,406.327576 431.604065,400.448792 
	C437.461517,384.471954 449.230072,373.509033 462.356506,363.481354 
	C478.845673,350.884796 482.440552,335.678833 478.538330,316.951202 
	C476.395782,306.668640 474.157745,296.162262 476.926697,285.763031 
	C479.799042,274.975739 483.177826,264.254639 487.284119,253.880173 
	C494.003448,236.903946 491.792145,221.755508 480.250092,207.688080 
	C471.505157,197.029846 464.162109,185.462158 461.424713,171.724823 
	C459.493317,162.032318 458.064392,152.201416 457.092712,142.364960 
	C455.652283,127.782990 448.152954,117.801453 435.196594,111.688934 
	C421.225464,105.097679 407.289490,98.370842 397.051727,86.359734 
	C392.480438,80.996590 388.994629,74.711250 384.983337,68.866997 
	C379.574554,60.986656 374.333435,52.866428 365.194641,48.722210 
	C355.979492,44.543350 346.101471,44.969364 336.290497,44.995811 
	C328.639832,45.016438 320.866455,45.649040 313.365387,44.538536 
	C301.108276,42.723919 290.471649,36.551029 280.235962,29.768068 
	C272.950104,24.939884 264.625824,21.980453 256.131775,22.298275 
	C246.305893,22.665926 237.304504,26.803476 228.965759,32.408768 
	C215.050079,41.762856 199.559784,46.419697 182.700562,45.969368 
	C177.610626,45.833405 172.526581,45.002594 167.446457,45.061516 
	C152.071945,45.239841 139.541168,51.010773 131.186676,64.437057 
	C129.406876,67.297348 127.755714,70.237549 125.984482,73.103348 
	C116.214287,88.911179 102.906593,100.432098 85.761719,107.939140 
	C78.716728,111.023849 71.869904,115.340698 66.128952,120.442841 
	C57.335625,128.257736 56.629921,139.760590 54.964535,150.636948 
	C53.546406,159.898483 52.269524,169.218948 50.120029,178.322052 
	C47.186367,190.746109 38.513901,200.040970 31.371191,210.122681 
	C24.512938,219.802933 19.515297,230.065445 23.064938,242.298264 
	C25.305256,250.018845 27.867956,257.694916 30.962723,265.108490 
	C37.675926,281.190002 38.553223,297.535706 35.349674,314.542999 
	C33.780777,322.872070 32.291630,331.344849 34.616222,340.075134 
	C37.678932,351.577484 45.191277,359.359528 54.247120,366.102020 
	C65.634148,374.580231 75.221123,384.579346 80.708466,397.875732 
	C83.786263,405.333557 86.356659,413.006165 89.009193,420.632935 
	C93.463654,433.440826 101.942192,442.132172 115.047852,445.855133 
	C121.703033,447.745697 128.512619,449.119843 135.290726,450.545258 
	C152.574997,454.179993 166.077209,464.070831 177.869247,476.549683 
	C191.773880,491.264252 207.891266,495.267883 227.002533,488.332428 
	C245.111176,481.760773 263.465759,480.958252 282.031372,486.906616 
	C288.444977,488.961487 295.064270,490.822449 301.724274,491.566315 
	C315.235260,493.075470 325.592529,486.297577 335.310303,476.819122 
z"/>
<path fill="#FFFFFF" opacity="1.000000" stroke="none" 
	d="
M335.059052,477.069153 
	C325.592529,486.297577 315.235260,493.075470 301.724274,491.566315 
	C295.064270,490.822449 288.444977,488.961487 282.031372,486.906616 
	C263.465759,480.958252 245.111176,481.760773 227.002533,488.332428 
	C207.891266,495.267883 191.773880,491.264252 177.869247,476.549683 
	C166.077209,464.070831 152.574997,454.179993 135.290726,450.545258 
	C128.512619,449.119843 121.703033,447.745697 115.047852,445.855133 
	C101.942192,442.132172 93.463654,433.440826 89.009193,420.632935 
	C86.356659,413.006165 83.786263,405.333557 80.708466,397.875732 
	C75.221123,384.579346 65.634148,374.580231 54.247120,366.102020 
	C45.191277,359.359528 37.678932,351.577484 34.616222,340.075134 
	C32.291630,331.344849 33.780777,322.872070 35.349674,314.542999 
	C38.553223,297.535706 37.675926,281.190002 30.962723,265.108490 
	C27.867956,257.694916 25.305256,250.018845 23.064938,242.298264 
	C19.515297,230.065445 24.512938,219.802933 31.371191,210.122681 
	C38.513901,200.040970 47.186367,190.746109 50.120029,178.322052 
	C52.269524,169.218948 53.546406,159.898483 54.964535,150.636948 
	C56.629921,139.760590 57.335625,128.257736 66.128952,120.442841 
	C71.869904,115.340698 78.716728,111.023849 85.761719,107.939140 
	C102.906593,100.432098 116.214287,88.911179 125.984482,73.103348 
	C127.755714,70.237549 129.406876,67.297348 131.186676,64.437057 
	C139.541168,51.010773 152.071945,45.239841 167.446457,45.061516 
	C172.526581,45.002594 177.610626,45.833405 182.700562,45.969368 
	C199.559784,46.419697 215.050079,41.762856 228.965759,32.408768 
	C237.304504,26.803476 246.305893,22.665926 256.131775,22.298275 
	C264.625824,21.980453 272.950104,24.939884 280.235962,29.768068 
	C290.471649,36.551029 301.108276,42.723919 313.365387,44.538536 
	C320.866455,45.649040 328.639832,45.016438 336.290497,44.995811 
	C346.101471,44.969364 355.979492,44.543350 365.194641,48.722210 
	C374.333435,52.866428 379.574554,60.986656 384.983337,68.866997 
	C388.994629,74.711250 392.480438,80.996590 397.051727,86.359734 
	C407.289490,98.370842 421.225464,105.097679 435.196594,111.688934 
	C448.152954,117.801453 455.652283,127.782990 457.092712,142.364960 
	C458.064392,152.201416 459.493317,162.032318 461.424713,171.724823 
	C464.162109,185.462158 471.505157,197.029846 480.250092,207.688080 
	C491.792145,221.755508 494.003448,236.903946 487.284119,253.880173 
	C483.177826,264.254639 479.799042,274.975739 476.926697,285.763031 
	C474.157745,296.162262 476.395782,306.668640 478.538330,316.951202 
	C482.440552,335.678833 478.845673,350.884796 462.356506,363.481354 
	C449.230072,373.509033 437.461517,384.471954 431.604065,400.448792 
	C429.448792,406.327576 427.053040,412.138397 425.271515,418.130219 
	C420.059845,435.658722 407.915985,444.933533 390.416992,447.930664 
	C373.873657,450.764160 358.205231,455.572784 345.447754,467.180725 
	C341.999817,470.317932 338.685791,473.602295 335.059052,477.069153 
M268.912323,122.941673 
	C268.900024,113.985085 269.083405,105.022583 268.812775,96.073814 
	C268.601318,89.083076 262.938751,83.864052 256.249023,83.878372 
	C249.489487,83.892838 244.040329,89.162094 243.964417,96.196938 
	C243.866074,105.310989 244.079361,114.428406 243.596481,123.907379 
	C220.740967,133.821838 212.941101,155.287521 223.426743,178.512100 
	C210.298203,205.496536 197.169662,232.480972 183.887268,259.781677 
	C181.524277,258.165070 179.835602,257.107513 178.252014,255.910843 
	C166.339371,246.908920 155.854935,236.539993 147.430130,224.127014 
	C143.500412,218.337036 141.018204,217.984711 135.494019,221.972855 
	C129.012360,226.652267 122.572594,231.391754 116.183723,236.197037 
	C110.982620,240.108963 110.686638,242.615936 114.374474,247.920990 
	C127.174629,266.334290 142.837280,281.834595 161.715714,293.951447 
	C165.132462,296.144440 165.573776,297.935669 163.795593,301.490265 
	C155.903427,317.266510 148.836212,333.480469 140.397110,348.950500 
	C133.115524,362.298645 135.022568,376.488281 134.627792,390.457825 
	C134.449326,396.773071 141.050659,399.078827 146.288467,395.098999 
	C150.530212,391.876038 154.409927,388.170105 158.701401,385.020630 
	C165.886185,379.747681 170.827621,372.938568 174.569687,364.888519 
	C181.372757,350.253540 188.636566,335.832672 195.708649,321.322784 
	C197.064209,318.541534 198.422470,315.761658 199.800217,312.938660 
	C237.842743,325.427002 275.426056,325.453949 313.028503,313.074432 
	C321.312073,330.105896 330.057526,346.424622 337.260071,363.398041 
	C343.530579,378.175018 355.857727,386.546722 367.555115,395.758270 
	C371.762665,399.071625 377.938812,396.241547 377.951599,391.018982 
	C377.987610,376.312988 379.940491,361.239990 371.501404,347.731628 
	C370.299591,345.807892 369.761932,343.469238 369.606873,341.069397 
	C390.668793,327.849640 401.528229,308.378296 403.971436,283.641174 
	C411.665802,284.131042 418.782898,284.714111 425.911041,284.926910 
	C427.314606,284.968781 428.760773,283.582062 430.187286,282.854187 
	C428.882660,281.912415 427.658600,280.317627 426.259094,280.145050 
	C420.978821,279.493835 415.628540,278.893860 410.329285,279.061127 
	C405.242859,279.221710 403.616211,277.313141 403.118744,272.355164 
	C401.250427,253.735809 393.179688,238.042313 379.586273,225.182877 
	C378.647949,224.295227 377.799408,223.312744 376.757599,222.214661 
	C380.567627,216.523895 384.425842,211.100876 387.867126,205.425095 
	C388.975769,203.596603 388.986694,201.102600 389.499817,198.913040 
	C387.673523,200.077637 385.335449,200.856705 384.114563,202.477371 
	C380.058044,207.862228 376.403290,213.549728 372.584900,219.135162 
	C351.159210,205.584259 329.069061,201.962173 305.072845,210.633392 
	C299.653595,199.766953 294.234314,188.900528 288.955780,177.295883 
	C300.045532,156.586792 291.358673,133.417099 268.912323,122.941673 
z"/>
<path fill="#4386F4" opacity="1.000000" stroke="none" 
	d="
M288.815033,178.034103 
	C294.234314,188.900528 299.653595,199.766953 305.405212,211.239746 
	C306.107300,212.769516 306.421082,213.720123 306.854889,214.612411 
	C319.793793,241.226379 332.706268,267.853302 345.707916,294.436615 
	C353.369629,310.101776 361.175720,325.696289 368.916870,341.322601 
	C369.761932,343.469238 370.299591,345.807892 371.501404,347.731628 
	C379.940491,361.239990 377.987610,376.312988 377.951599,391.018982 
	C377.938812,396.241547 371.762665,399.071625 367.555115,395.758270 
	C355.857727,386.546722 343.530579,378.175018 337.260071,363.398041 
	C330.057526,346.424622 321.312073,330.105896 313.028503,313.074432 
	C275.426056,325.453949 237.842743,325.427002 199.800217,312.938660 
	C198.422470,315.761658 197.064209,318.541534 195.708649,321.322784 
	C188.636566,335.832672 181.372757,350.253540 174.569687,364.888519 
	C170.827621,372.938568 165.886185,379.747681 158.701401,385.020630 
	C154.409927,388.170105 150.530212,391.876038 146.288467,395.098999 
	C141.050659,399.078827 134.449326,396.773071 134.627792,390.457825 
	C135.022568,376.488281 133.115524,362.298645 140.397110,348.950500 
	C148.836212,333.480469 155.903427,317.266510 163.795593,301.490265 
	C165.573776,297.935669 165.132462,296.144440 161.715714,293.951447 
	C142.837280,281.834595 127.174629,266.334290 114.374474,247.920990 
	C110.686638,242.615936 110.982620,240.108963 116.183723,236.197037 
	C122.572594,231.391754 129.012360,226.652267 135.494019,221.972855 
	C141.018204,217.984711 143.500412,218.337036 147.430130,224.127014 
	C155.854935,236.539993 166.339371,246.908920 178.252014,255.910843 
	C179.835602,257.107513 181.524277,258.165070 183.887268,259.781677 
	C197.169662,232.480972 210.298203,205.496536 223.906708,178.523926 
	C226.690933,181.312515 228.795029,184.289932 231.338196,186.827240 
	C238.112122,193.585587 246.842407,195.824554 255.890411,197.283340 
	C243.165939,223.570633 230.537033,249.516754 217.704391,275.881439 
	C243.832047,283.552917 269.164886,283.470703 294.901001,275.845459 
	C290.965424,267.674133 287.354034,260.185791 283.751068,252.693405 
	C274.817139,234.115128 265.886993,215.535004 257.338013,196.834320 
	C271.134003,195.561539 281.466400,189.281326 288.815033,178.034103 
z"/>
<path fill="#3FDC85" opacity="1.000000" stroke="none" 
	d="
M369.261871,341.195984 
	C361.175720,325.696289 353.369629,310.101776 345.707916,294.436615 
	C332.706268,267.853302 319.793793,241.226379 306.854889,214.612411 
	C306.421082,213.720123 306.107300,212.769516 305.622131,211.485504 
	C329.069061,201.962173 351.159210,205.584259 372.584900,219.135162 
	C376.403290,213.549728 380.058044,207.862228 384.114563,202.477371 
	C385.335449,200.856705 387.673523,200.077637 389.499817,198.913055 
	C388.986694,201.102600 388.975769,203.596603 387.867126,205.425095 
	C384.425842,211.100876 380.567627,216.523895 376.757599,222.214661 
	C377.799408,223.312744 378.647949,224.295227 379.586273,225.182877 
	C393.179688,238.042313 401.250427,253.735809 403.118744,272.355164 
	C403.616211,277.313141 405.242859,279.221710 410.329285,279.061127 
	C415.628540,278.893860 420.978821,279.493835 426.259094,280.145050 
	C427.658600,280.317627 428.882660,281.912415 430.187286,282.854187 
	C428.760773,283.582062 427.314606,284.968781 425.911041,284.926910 
	C418.782898,284.714111 411.665802,284.131042 403.971436,283.641174 
	C401.528229,308.378296 390.668793,327.849640 369.261871,341.195984 
M349.249817,239.673416 
	C350.112427,237.389404 351.616669,235.097916 351.590210,232.824249 
	C351.575043,231.520020 349.119629,229.253967 347.683807,229.189835 
	C345.559265,229.094925 342.665710,230.007736 341.415039,231.554871 
	C340.366333,232.852249 340.331085,236.638885 341.397430,237.595749 
	C343.119354,239.140945 346.114716,239.266998 349.249817,239.673416 
M370.112030,297.405640 
	C371.882874,300.174255 374.213409,301.824097 377.551514,300.393860 
	C380.713776,299.038940 381.930725,296.401794 381.002869,293.117340 
	C380.040985,289.712341 377.365082,288.352112 374.113525,289.147614 
	C370.300507,290.080444 368.941254,292.864807 370.112030,297.405640 
z"/>
<path fill="#0A3345" opacity="1.000000" stroke="none" 
	d="
M255.985962,196.942169 
	C246.842407,195.824554 238.112122,193.585587 231.338196,186.827240 
	C228.795029,184.289932 226.690933,181.312515 224.154785,178.292953 
	C212.941101,155.287521 220.740967,133.821838 244.301971,123.660507 
	C253.023361,121.124573 260.995911,121.178490 268.919922,123.856003 
	C291.358673,133.417099 300.045532,156.586792 288.885406,177.664993 
	C281.466400,189.281326 271.134003,195.561539 257.096741,196.766296 
	C256.310547,196.860428 256.148254,196.901291 255.985962,196.942169 
M273.984802,148.715866 
	C267.477966,139.230103 257.096069,136.022949 247.566086,140.554703 
	C238.444458,144.892258 233.777802,155.082764 236.518845,164.678467 
	C239.817001,176.224594 252.112579,182.549164 263.331390,178.470261 
	C275.142303,174.176086 279.956879,161.446320 273.984802,148.715866 
z"/>
<path fill="#4486F4" opacity="1.000000" stroke="none" 
	d="
M268.916138,123.398834 
	C260.995911,121.178490 253.023361,121.124573 244.582977,123.479004 
	C244.079361,114.428406 243.866074,105.310989 243.964417,96.196938 
	C244.040329,89.162094 249.489487,83.892838 256.249023,83.878372 
	C262.938751,83.864052 268.601318,89.083076 268.812775,96.073814 
	C269.083405,105.022583 268.900024,113.985085 268.916138,123.398834 
z"/>
<path fill="#FDFEFF" opacity="1.000000" stroke="none" 
	d="
M255.890411,197.283340 
	C256.148254,196.901291 256.310547,196.860428 256.714050,196.887589 
	C265.886993,215.535004 274.817139,234.115128 283.751068,252.693405 
	C287.354034,260.185791 290.965424,267.674133 294.901001,275.845459 
	C269.164886,283.470703 243.832047,283.552917 217.704391,275.881439 
	C230.537033,249.516754 243.165939,223.570633 255.890411,197.283340 
z"/>
<path fill="#FBFEFC" opacity="1.000000" stroke="none" 
	d="
M348.911041,239.832916 
	C346.114716,239.266998 343.119354,239.140945 341.397430,237.595749 
	C340.331085,236.638885 340.366333,232.852249 341.415039,231.554871 
	C342.665710,230.007736 345.559265,229.094925 347.683807,229.189835 
	C349.119629,229.253967 351.575043,231.520020 351.590210,232.824249 
	C351.616669,235.097916 350.112427,237.389404 348.911041,239.832916 
z"/>
<path fill="#FBFEFC" opacity="1.000000" stroke="none" 
	d="
M370.006531,297.055115 
	C368.941254,292.864807 370.300507,290.080444 374.113525,289.147614 
	C377.365082,288.352112 380.040985,289.712341 381.002869,293.117340 
	C381.930725,296.401794 380.713776,299.038940 377.551514,300.393860 
	C374.213409,301.824097 371.882874,300.174255 370.006531,297.055115 
z"/>
<path fill="#FCFDFD" opacity="1.000000" stroke="none" 
	d="
M274.158813,149.049118 
	C279.956879,161.446320 275.142303,174.176086 263.331390,178.470261 
	C252.112579,182.549164 239.817001,176.224594 236.518845,164.678467 
	C233.777802,155.082764 238.444458,144.892258 247.566086,140.554703 
	C257.096069,136.022949 267.477966,139.230103 274.158813,149.049118 
z"/>
</svg>