<svg version="1.1" id="Layer_1" xmlns="http://www.w3.org/2000/svg" xmlns:xlink="http://www.w3.org/1999/xlink" x="0px" y="0px"
	 width="100%" viewBox="0 0 128 128" enable-background="new 0 0 128 128" xml:space="preserve">
<path fill="#000000" opacity="1.000000" stroke="none" 
	d="
M83.000000,129.000000 
	C55.333332,129.000000 28.166666,129.000000 1.000000,129.000000 
	C1.000000,86.333336 1.000000,43.666668 1.000000,1.000000 
	C43.666668,1.000000 86.333336,1.000000 129.000000,1.000000 
	C129.000000,43.666668 129.000000,86.333336 129.000000,129.000000 
	C113.833336,129.000000 98.666664,129.000000 83.000000,129.000000 
M42.862965,117.966042 
	C44.427082,118.234978 46.152340,119.075470 47.531048,118.686768 
	C66.937714,113.215385 86.313766,107.632980 105.657036,101.940887 
	C110.790962,100.430145 112.296623,96.802673 109.992874,92.051193 
	C97.559631,66.407532 85.107704,40.772793 72.581474,15.174484 
	C69.868500,9.630298 64.142303,9.403929 60.745327,14.641424 
	C54.700439,23.961514 48.771389,33.356716 42.790508,42.718342 
	C35.568523,54.022614 28.215843,65.247124 21.235682,76.698738 
	C19.971594,78.772591 18.957735,82.566093 19.988304,84.219002 
	C27.059509,95.560371 34.705959,106.543083 42.862965,117.966042 
z"/>
<path fill="#00BFA5" opacity="1.000000" stroke="none" 
	d="
M42.515068,117.803665 
	C34.705959,106.543083 27.059509,95.560371 19.988304,84.219002 
	C18.957735,82.566093 19.971594,78.772591 21.235682,76.698738 
	C28.215843,65.247124 35.568523,54.022614 42.790508,42.718342 
	C48.771389,33.356716 54.700439,23.961514 60.745327,14.641424 
	C64.142303,9.403929 69.868500,9.630298 72.581474,15.174484 
	C85.107704,40.772793 97.559631,66.407532 109.992874,92.051193 
	C112.296623,96.802673 110.790962,100.430145 105.657036,101.940887 
	C86.313766,107.632980 66.937714,113.215385 47.531048,118.686768 
	C46.152340,119.075470 44.427082,118.234978 42.515068,117.803665 
M53.986080,90.432175 
	C52.883213,95.527496 51.980167,100.677353 50.609653,105.699638 
	C49.640190,109.252243 49.984745,110.315788 53.956257,109.134613 
	C68.926208,104.682327 83.945541,100.391190 98.995316,96.216072 
	C102.209198,95.324486 102.498650,94.069801 101.108833,91.275139 
	C97.469604,83.957314 94.090355,76.510513 90.580505,69.127960 
	C87.492630,62.632961 84.414894,56.132442 81.248108,49.675838 
	C77.336266,41.700142 73.337029,33.767311 68.904190,24.869864 
	C67.951416,26.335934 67.398476,26.840788 67.269600,27.437269 
	C65.480133,35.719738 63.765553,44.018341 61.999290,52.305889 
	C59.351238,64.730896 56.676868,77.150284 53.986080,90.432175 
z"/>
<path fill="#000000" opacity="1.000000" stroke="none" 
	d="
M53.999886,90.002121 
	C56.676868,77.150284 59.351238,64.730896 61.999290,52.305889 
	C63.765553,44.018341 65.480133,35.719738 67.269600,27.437269 
	C67.398476,26.840788 67.951416,26.335934 68.904190,24.869864 
	C73.337029,33.767311 77.336266,41.700142 81.248108,49.675838 
	C84.414894,56.132442 87.492630,62.632961 90.580505,69.127960 
	C94.090355,76.510513 97.469604,83.957314 101.108833,91.275139 
	C102.498650,94.069801 102.209198,95.324486 98.995316,96.216072 
	C83.945541,100.391190 68.926208,104.682327 53.956257,109.134613 
	C49.984745,110.315788 49.640190,109.252243 50.609653,105.699638 
	C51.980167,100.677353 52.883213,95.527496 53.999886,90.002121 
z"/>
</svg>